<?xml version="1.0" encoding="utf-8"?>
<!-- Generator: Adobe Illustrator 23.0.4, SVG Export Plug-In . SVG Version: 6.00 Build 0)  -->
<svg version="1.1" id="Layer_1" xmlns="http://www.w3.org/2000/svg" xmlns:xlink="http://www.w3.org/1999/xlink" x="0px" y="0px"
	 viewBox="0 0 48 48" style="enable-background:new 0 0 48 48;" xml:space="preserve">
<style type="text/css">
	.st0{fill:#231F20;}
</style>
<g>
	<path class="st0" d="M37.3,17.8c-2.1-2-4.8-3.2-7.6-3.2c-1.5,0-2.9,0.3-4.3,0.9V2.3h-3.6v13.3c-1.4-0.7-3-1-4.5-1
		c-2.8,0-5.5,1.1-7.6,3.2L9,18.4v13.1c0,8.3,6.4,15.1,14.4,15.1s14.4-6.8,14.4-15.1v-13L37.3,17.8z M33.8,31.5
		c0,6-4.6,10.8-10.3,10.8s-10.3-4.9-10.3-10.8V20.4c1.2-0.9,2.6-1.4,4.1-1.4c2.2,0,3.8,1.1,4.8,2l0.2,0.2V35c0,0.7,0.6,1.3,1.2,1.3
		c0.7,0,1.2-0.6,1.2-1.3V21.2L25,21c1-0.9,2.6-2,4.8-2c1.5,0,2.9,0.5,4.1,1.4L33.8,31.5z"/>
</g>
</svg>
