<?xml version="1.0" encoding="utf-8"?>
<!-- Generator: Adobe Illustrator 21.1.0, SVG Export Plug-In . SVG Version: 6.00 Build 0)  -->
<svg version="1.1" id="Layer_1" xmlns="http://www.w3.org/2000/svg" xmlns:xlink="http://www.w3.org/1999/xlink" x="0px" y="0px"
	 viewBox="0 0 50 50" style="enable-background:new 0 0 50 50;" xml:space="preserve">
<style type="text/css">
	.st0{fill:#A8A8A8;}
</style>
<g>
	<g>
		<path class="st0" d="M87.8,41.8h2.6v8.4h4.8v2.1h-7.4V41.8z"/>
		<path class="st0" d="M95.2,53.4h-7.4c-0.6,0-1.1-0.5-1.1-1.1V41.8c-0.1-0.6,0.4-1.1,1.1-1.1h2.6c0.6,0,1.1,0.5,1.1,1.1v7.3h3.7
			c0.6,0,1.1,0.5,1.1,1.1v2.1C96.4,52.9,95.9,53.4,95.2,53.4z M88.9,51.2h1c-0.4-0.2-0.6-0.6-0.6-1v-7.3h-0.4V51.2z"/>
	</g>
	<g>
		<path class="st0" d="M104,42h2.2v19.6H104V42z"/>
		<path class="st0" d="M106.2,62.8H104c-0.6,0-1.1-0.5-1.1-1.1V42c0-0.6,0.5-1.1,1.1-1.1h2.2c0.6,0,1.1,0.5,1.1,1.1v19.6
			C107.4,62.2,106.8,62.8,106.2,62.8z"/>
	</g>
	<g>
		<path class="st0" d="M121.2,44.6c-0.2-0.3-0.5-0.5-0.8-0.6c-0.3-0.1-0.7-0.2-1.1-0.2s-0.8,0.1-1.2,0.2c-0.4,0.2-0.7,0.4-0.9,0.7
			c-0.3,0.3-0.5,0.6-0.6,1c-0.1,0.4-0.2,0.8-0.2,1.3s0.1,0.9,0.2,1.3c0.1,0.4,0.3,0.7,0.6,1c0.3,0.3,0.6,0.5,0.9,0.7
			c0.3,0.2,0.7,0.2,1.1,0.2c0.5,0,0.9-0.1,1.2-0.3c0.3-0.2,0.6-0.5,0.9-0.8l1.8,1.4c-0.4,0.6-1,1-1.6,1.3s-1.3,0.4-2,0.4
			c-0.8,0-1.5-0.1-2.2-0.4c-0.7-0.2-1.2-0.6-1.7-1.1s-0.9-1-1.1-1.7c-0.3-0.7-0.4-1.4-0.4-2.2s0.1-1.5,0.4-2.2
			c0.3-0.7,0.6-1.2,1.1-1.7s1.1-0.8,1.7-1.1c0.7-0.2,1.4-0.4,2.2-0.4c0.3,0,0.6,0,0.9,0.1c0.3,0.1,0.6,0.1,0.9,0.2
			c0.3,0.1,0.6,0.3,0.9,0.5c0.3,0.2,0.5,0.4,0.7,0.7L121.2,44.6z"/>
		<path class="st0" d="M119.5,53.5c-0.9,0-1.8-0.1-2.6-0.4c-0.8-0.3-1.5-0.7-2.1-1.3s-1.1-1.3-1.4-2.1c-0.3-0.8-0.5-1.7-0.5-2.6
			c0-0.9,0.2-1.8,0.5-2.6c0.3-0.8,0.8-1.5,1.4-2.1c0.6-0.6,1.3-1,2.1-1.3c0.8-0.3,1.6-0.4,2.6-0.4c0.3,0,0.7,0,1.1,0.1
			c0.4,0.1,0.8,0.2,1.1,0.3c0.4,0.1,0.7,0.3,1.1,0.6c0.4,0.3,0.7,0.6,1,0.9c0.4,0.5,0.3,1.2-0.2,1.6l-1.7,1.4
			c-0.5,0.4-1.2,0.3-1.6-0.2c-0.1-0.1-0.2-0.2-0.4-0.3c-0.2-0.1-0.4-0.1-0.6-0.1c-0.3,0-0.5,0-0.7,0.1c-0.2,0.1-0.4,0.2-0.5,0.4
			c-0.2,0.2-0.3,0.4-0.4,0.7c-0.1,0.3-0.1,0.6-0.1,0.9s0,0.6,0.1,0.9s0.2,0.5,0.4,0.7c0.2,0.2,0.3,0.3,0.5,0.4
			c0.2,0.1,0.4,0.1,0.6,0.1c0.3,0,0.5,0,0.7-0.1c0.2-0.1,0.3-0.2,0.5-0.4c0.2-0.3,0.4-0.4,0.8-0.5c0.3-0.1,0.6,0,0.9,0.2l1.7,1.3
			c0.5,0.4,0.6,1.1,0.2,1.6c-0.5,0.8-1.2,1.3-2.1,1.7C121.2,53.3,120.4,53.5,119.5,53.5z M115.9,44.7c-0.1,0.2-0.2,0.4-0.3,0.6
			c-0.2,0.5-0.3,1.1-0.3,1.7c0,0.6,0.1,1.2,0.3,1.7c0.1,0.2,0.2,0.4,0.3,0.6c-0.1-0.2-0.2-0.4-0.3-0.6c-0.2-0.5-0.3-1.1-0.3-1.7
			c0-0.6,0.1-1.2,0.3-1.7C115.7,45.1,115.8,44.9,115.9,44.7z"/>
	</g>
</g>
<g>
	<path class="st0" d="M11.2,5.2H13v6.5h3.3v1.6h-5.1V5.2z"/>
	<polygon class="st0" points="17.2,14.2 10.3,14.2 10.3,4.3 13.9,4.3 13.9,10.7 17.2,10.7 	"/>
</g>
<g>
	<path class="st0" d="M23.7,5.2h1.8v8.1h-1.8V5.2z"/>
	<rect x="22.8" y="4.3" class="st0" width="3.6" height="17.1"/>
</g>
<g>
	<path class="st0" d="M36.9,7.3c-0.2-0.2-0.4-0.4-0.6-0.5c-0.3-0.1-0.6-0.2-0.9-0.2s-0.6,0.1-0.9,0.2c-0.3,0.1-0.5,0.3-0.7,0.5
		c-0.2,0.2-0.4,0.5-0.5,0.8C33,8.5,33,8.9,33,9.3c0,0.4,0.1,0.7,0.2,1c0.1,0.3,0.3,0.6,0.5,0.8c0.2,0.2,0.4,0.4,0.7,0.5
		c0.3,0.1,0.6,0.2,0.9,0.2c0.4,0,0.7-0.1,1-0.2c0.3-0.2,0.5-0.4,0.7-0.6l1.5,1.1c-0.3,0.5-0.8,0.8-1.3,1.1c-0.5,0.2-1.1,0.3-1.6,0.3
		c-0.6,0-1.2-0.1-1.8-0.3c-0.5-0.2-1-0.5-1.4-0.9C32,12,31.7,11.6,31.5,11c-0.2-0.5-0.3-1.1-0.3-1.8c0-0.6,0.1-1.2,0.3-1.8
		c0.2-0.5,0.5-1,0.9-1.3c0.4-0.4,0.9-0.7,1.4-0.9C34.3,5.1,34.9,5,35.5,5c0.2,0,0.5,0,0.7,0.1c0.2,0,0.5,0.1,0.7,0.2
		c0.2,0.1,0.5,0.2,0.7,0.4c0.2,0.2,0.4,0.3,0.6,0.6L36.9,7.3z"/>
	<path class="st0" d="M35.5,14.4c-0.7,0-1.4-0.1-2.1-0.4c-0.6-0.2-1.2-0.6-1.7-1c-0.5-0.5-0.9-1-1.1-1.7c-0.3-0.6-0.4-1.3-0.4-2.1
		c0-0.8,0.1-1.5,0.4-2.1c0.3-0.6,0.6-1.2,1.1-1.7c0.5-0.5,1-0.8,1.7-1c0.6-0.2,1.3-0.4,2.1-0.4c0.3,0,0.6,0,0.9,0.1
		c0.3,0.1,0.6,0.1,0.9,0.2c0.3,0.1,0.6,0.3,0.9,0.5c0.3,0.2,0.6,0.5,0.8,0.7l0.6,0.7l-2.8,2.3l-0.6-0.7c-0.1-0.1-0.2-0.2-0.3-0.2
		c-0.1-0.1-0.3-0.1-0.5-0.1c-0.2,0-0.4,0-0.6,0.1c-0.2,0.1-0.3,0.2-0.4,0.3c-0.1,0.1-0.2,0.3-0.3,0.5c-0.1,0.2-0.1,0.5-0.1,0.7
		c0,0.3,0,0.5,0.1,0.7c0.1,0.2,0.2,0.4,0.3,0.5c0.1,0.1,0.3,0.2,0.4,0.3c0.2,0.1,0.3,0.1,0.5,0.1c0.2,0,0.4,0,0.5-0.1
		c0.2-0.1,0.3-0.2,0.4-0.3l0.5-0.8l3,2.2l-0.5,0.7c-0.4,0.6-1,1.1-1.7,1.4C36.9,14.3,36.2,14.4,35.5,14.4z M32.6,7.3
		c-0.1,0.2-0.2,0.3-0.3,0.5C32.1,8.3,32,8.7,32,9.3c0,0.5,0.1,1,0.3,1.4c0.1,0.2,0.1,0.3,0.2,0.5c-0.1-0.2-0.2-0.3-0.2-0.5
		c-0.2-0.4-0.2-0.9-0.2-1.4c0-0.5,0.1-0.9,0.2-1.4C32.4,7.7,32.5,7.5,32.6,7.3z"/>
</g>
<g>
	<path class="st0" d="M38.3,19.8c-2.1-2-4.8-3.2-7.6-3.2c-2.2,0-4.3,0.7-6.2,2c-1.8-1.3-4-2-6.2-2c-2.8,0-5.5,1.1-7.6,3.2l-0.7,0.6
		v13.1c0,8.3,6.4,15.1,14.4,15.1s14.4-6.8,14.4-15.1V20.5L38.3,19.8z M34.8,33.5c0,6-4.6,10.8-10.3,10.8s-10.3-4.9-10.3-10.8V22.4
		c1.2-0.9,2.6-1.4,4.1-1.4c2.2,0,3.8,1.1,4.8,2l0.2,0.2V37c0,0.7,0.6,1.3,1.2,1.3c0.7,0,1.2-0.6,1.2-1.3V23.2L26,23
		c1-0.9,2.6-2,4.8-2c1.5,0,2.9,0.5,4.1,1.4V33.5z"/>
</g>
</svg>
