<?xml version="1.0" encoding="utf-8"?>
<!-- Generator: Adobe Illustrator 23.0.4, SVG Export Plug-In . SVG Version: 6.00 Build 0)  -->
<svg version="1.1" id="Layer_1" xmlns="http://www.w3.org/2000/svg" xmlns:xlink="http://www.w3.org/1999/xlink" x="0px" y="0px"
	 viewBox="0 0 50 50" style="enable-background:new 0 0 50 50;" xml:space="preserve">
<style type="text/css">
	.st0{fill:#231F20;}
</style>
<g>
	<g>
		<path class="st0" d="M142.2,24.9h2.6v8.4h4.8v2.1h-7.4L142.2,24.9L142.2,24.9z"/>
		<path class="st0" d="M149.6,36.5h-7.4c-0.6,0-1.1-0.5-1.1-1.1V24.9c-0.1-0.6,0.4-1.1,1.1-1.1h2.6c0.6,0,1.1,0.5,1.1,1.1v7.3h3.7
			c0.6,0,1.1,0.5,1.1,1.1v2.1C150.9,36,150.4,36.5,149.6,36.5z M143.4,34.3h1c-0.4-0.2-0.6-0.6-0.6-1V26h-0.4V34.3z"/>
	</g>
	<g>
		<path class="st0" d="M158.4,25.1h2.2v19.6h-2.2V25.1z"/>
		<path class="st0" d="M160.6,45.9h-2.2c-0.6,0-1.1-0.5-1.1-1.1V25.1c0-0.6,0.5-1.1,1.1-1.1h2.2c0.6,0,1.1,0.5,1.1,1.1v19.6
			C161.9,45.3,161.2,45.9,160.6,45.9z"/>
	</g>
	<g>
		<path class="st0" d="M175.6,27.7c-0.2-0.3-0.5-0.5-0.8-0.6s-0.7-0.2-1.1-0.2s-0.8,0.1-1.2,0.2c-0.4,0.2-0.7,0.4-0.9,0.7
			c-0.3,0.3-0.5,0.6-0.6,1s-0.2,0.8-0.2,1.3s0.1,0.9,0.2,1.3c0.1,0.4,0.3,0.7,0.6,1c0.3,0.3,0.6,0.5,0.9,0.7s0.7,0.2,1.1,0.2
			c0.5,0,0.9-0.1,1.2-0.3s0.6-0.5,0.9-0.8l1.8,1.4c-0.4,0.6-1,1-1.6,1.3s-1.3,0.4-2,0.4c-0.8,0-1.5-0.1-2.2-0.4
			c-0.7-0.2-1.2-0.6-1.7-1.1s-0.9-1-1.1-1.7c-0.3-0.7-0.4-1.4-0.4-2.2c0-0.8,0.1-1.5,0.4-2.2c0.3-0.7,0.6-1.2,1.1-1.7
			s1.1-0.8,1.7-1.1c0.7-0.2,1.4-0.4,2.2-0.4c0.3,0,0.6,0,0.9,0.1s0.6,0.1,0.9,0.2c0.3,0.1,0.6,0.3,0.9,0.5c0.3,0.2,0.5,0.4,0.7,0.7
			L175.6,27.7z"/>
		<path class="st0" d="M173.9,36.6c-0.9,0-1.8-0.1-2.6-0.4c-0.8-0.3-1.5-0.7-2.1-1.3s-1.1-1.3-1.4-2.1c-0.3-0.8-0.5-1.7-0.5-2.6
			s0.2-1.8,0.5-2.6c0.3-0.8,0.8-1.5,1.4-2.1s1.3-1,2.1-1.3s1.6-0.4,2.6-0.4c0.3,0,0.7,0,1.1,0.1c0.4,0.1,0.8,0.2,1.1,0.3
			c0.4,0.1,0.7,0.3,1.1,0.6c0.4,0.3,0.7,0.6,1,0.9c0.4,0.5,0.3,1.2-0.2,1.6l-1.7,1.4c-0.5,0.4-1.2,0.3-1.6-0.2
			c-0.1-0.1-0.2-0.2-0.4-0.3c-0.2-0.1-0.4-0.1-0.6-0.1c-0.3,0-0.5,0-0.7,0.1s-0.4,0.2-0.5,0.4c-0.2,0.2-0.3,0.4-0.4,0.7
			c-0.1,0.3-0.1,0.6-0.1,0.9s0,0.6,0.1,0.9s0.2,0.5,0.4,0.7s0.3,0.3,0.5,0.4c0.2,0.1,0.4,0.1,0.6,0.1c0.3,0,0.5,0,0.7-0.1
			s0.3-0.2,0.5-0.4c0.2-0.3,0.4-0.4,0.8-0.5c0.3-0.1,0.6,0,0.9,0.2l1.7,1.3c0.5,0.4,0.6,1.1,0.2,1.6c-0.5,0.8-1.2,1.3-2.1,1.7
			C175.6,36.4,174.9,36.6,173.9,36.6z M170.4,27.8c-0.1,0.2-0.2,0.4-0.3,0.6c-0.2,0.5-0.3,1.1-0.3,1.7s0.1,1.2,0.3,1.7
			c0.1,0.2,0.2,0.4,0.3,0.6c-0.1-0.2-0.2-0.4-0.3-0.6c-0.2-0.5-0.3-1.1-0.3-1.7s0.1-1.2,0.3-1.7C170.1,28.2,170.2,28,170.4,27.8z"/>
	</g>
</g>
<g>
	<path class="st0" d="M11.2,4.2H13v6.5h3.3v1.6h-5.1C11.2,12.3,11.2,4.2,11.2,4.2z"/>
	<polygon class="st0" points="17.2,13.2 10.3,13.2 10.3,3.3 13.9,3.3 13.9,9.7 17.2,9.7 	"/>
</g>
<g>
	<path class="st0" d="M23.7,5.2h1.8v8.1h-1.8V5.2z"/>
	<rect x="22.8" y="4.3" class="st0" width="3.6" height="17.1"/>
</g>
<g>
	<path class="st0" d="M37.9,6.3c-0.2-0.2-0.4-0.4-0.6-0.5c-0.3-0.1-0.6-0.2-0.9-0.2s-0.6,0.1-0.9,0.2c-0.3,0.1-0.5,0.3-0.7,0.5
		s-0.4,0.5-0.5,0.8C34,7.5,34,7.9,34,8.3c0,0.4,0.1,0.7,0.2,1c0.1,0.3,0.3,0.6,0.5,0.8s0.4,0.4,0.7,0.5s0.6,0.2,0.9,0.2
		c0.4,0,0.7-0.1,1-0.2c0.3-0.2,0.5-0.4,0.7-0.6l1.5,1.1c-0.3,0.5-0.8,0.8-1.3,1.1c-0.5,0.2-1.1,0.3-1.6,0.3c-0.6,0-1.2-0.1-1.8-0.3
		c-0.5-0.2-1-0.5-1.4-0.9C33,11,32.7,10.6,32.5,10c-0.2-0.5-0.3-1.1-0.3-1.8c0-0.6,0.1-1.2,0.3-1.8c0.2-0.5,0.5-1,0.9-1.3
		c0.4-0.4,0.9-0.7,1.4-0.9C35.3,4.1,35.9,4,36.5,4c0.2,0,0.5,0,0.7,0.1c0.2,0,0.5,0.1,0.7,0.2s0.5,0.2,0.7,0.4
		C38.8,4.9,39,5,39.2,5.3L37.9,6.3z"/>
	<path class="st0" d="M36.5,13.4c-0.7,0-1.4-0.1-2.1-0.4c-0.6-0.2-1.2-0.6-1.7-1c-0.5-0.5-0.9-1-1.1-1.7c-0.3-0.6-0.4-1.3-0.4-2.1
		c0-0.8,0.1-1.5,0.4-2.1s0.6-1.2,1.1-1.7s1-0.8,1.7-1C35,3.2,35.7,3,36.5,3c0.3,0,0.6,0,0.9,0.1c0.3,0.1,0.6,0.1,0.9,0.2
		c0.3,0.1,0.6,0.3,0.9,0.5C39.5,4,39.8,4.3,40,4.5l0.6,0.7l-2.8,2.3l-0.6-0.7c-0.1-0.1-0.2-0.2-0.3-0.2c-0.1-0.1-0.3-0.1-0.5-0.1
		s-0.4,0-0.6,0.1c-0.2,0.1-0.3,0.2-0.4,0.3c-0.1,0.1-0.2,0.3-0.3,0.5S35,7.9,35,8.1c0,0.3,0,0.5,0.1,0.7s0.2,0.4,0.3,0.5
		s0.3,0.2,0.4,0.3c0.2,0.1,0.3,0.1,0.5,0.1s0.4,0,0.5-0.1c0.2-0.1,0.3-0.2,0.4-0.3l0.5-0.8l3,2.2l-0.5,0.7c-0.4,0.6-1,1.1-1.7,1.4
		C37.9,13.3,37.2,13.4,36.5,13.4z M33.6,6.3c-0.1,0.2-0.2,0.3-0.3,0.5C33.1,7.3,33,7.7,33,8.3c0,0.5,0.1,1,0.3,1.4
		c0.1,0.2,0.1,0.3,0.2,0.5c-0.1-0.2-0.2-0.3-0.2-0.5c-0.2-0.4-0.2-0.9-0.2-1.4s0.1-0.9,0.2-1.4C33.4,6.7,33.5,6.5,33.6,6.3z"/>
</g>
<g>
	<path class="st0" d="M38.3,19.8c-2.1-2-4.8-3.2-7.6-3.2c-2.2,0-4.3,0.7-6.2,2c-1.8-1.3-4-2-6.2-2c-2.8,0-5.5,1.1-7.6,3.2L10,20.4
		v13.1c0,8.3,6.4,15.1,14.4,15.1s14.4-6.8,14.4-15.1v-13L38.3,19.8z M34.8,33.5c0,6-4.6,10.8-10.3,10.8s-10.3-4.9-10.3-10.8V22.4
		c1.2-0.9,2.6-1.4,4.1-1.4c2.2,0,3.8,1.1,4.8,2l0.2,0.2V37c0,0.7,0.6,1.3,1.2,1.3c0.7,0,1.2-0.6,1.2-1.3V23.2L26,23
		c1-0.9,2.6-2,4.8-2c1.5,0,2.9,0.5,4.1,1.4L34.8,33.5L34.8,33.5z"/>
</g>
<g>
	<path class="st0" d="M-31.2,5.2h1.8v6.5h3.3v1.6h-5.1C-31.2,13.3-31.2,5.2-31.2,5.2z"/>
	<polygon class="st0" points="-25.2,14.2 -32.1,14.2 -32.1,4.3 -28.5,4.3 -28.5,10.7 -25.2,10.7 	"/>
</g>
<g>
	<path class="st0" d="M-18.7,5.7h1.8v12.8h-1.8V5.7z"/>
	<rect x="-19.6" y="4.3" class="st0" width="3.6" height="27"/>
</g>
<g>
	<path class="st0" d="M-5.5,7.3c-0.2-0.2-0.4-0.4-0.6-0.5C-6.4,6.7-6.7,6.6-7,6.6s-0.6,0.1-0.9,0.2C-8.3,7-8.5,7.2-8.8,7.4
		C-9,7.6-9.1,7.9-9.2,8.2c-0.1,0.3-0.2,0.7-0.2,1c0,0.4,0.1,0.7,0.2,1c0.1,0.3,0.3,0.6,0.5,0.8s0.4,0.4,0.7,0.5s0.6,0.2,0.9,0.2
		c0.4,0,0.7-0.1,1-0.2c0.3-0.2,0.5-0.4,0.7-0.6l1.5,1.1c-0.3,0.5-0.8,0.8-1.3,1.1s-1.1,0.3-1.6,0.3c-0.6,0-1.2-0.1-1.8-0.3
		c-0.5-0.2-1-0.5-1.4-0.9s-0.7-0.8-0.9-1.3s-0.3-1.1-0.3-1.8c0-0.6,0.1-1.2,0.3-1.8c0.2-0.5,0.5-1,0.9-1.3c0.4-0.4,0.9-0.7,1.4-0.9
		C-8.1,5.1-7.5,5-6.9,5c0.2,0,0.5,0,0.7,0.1c0.2,0,0.5,0.1,0.7,0.2C-5.2,5.4-5,5.5-4.8,5.6C-4.5,5.8-4.3,6-4.2,6.2L-5.5,7.3z"/>
	<path class="st0" d="M-6.9,14.4c-0.7,0-1.4-0.1-2.1-0.4c-0.6-0.2-1.2-0.6-1.7-1c-0.5-0.5-0.9-1-1.1-1.7c-0.3-0.6-0.4-1.3-0.4-2.1
		c0-0.8,0.1-1.5,0.4-2.1c0.3-0.6,0.6-1.2,1.1-1.7s1-0.8,1.7-1C-8.4,4.2-7.7,4-6.9,4C-6.6,4-6.3,4-6,4.1s0.6,0.1,0.9,0.2
		s0.6,0.3,0.9,0.5s0.6,0.5,0.8,0.7l0.6,0.7l-2.8,2.3l-0.6-0.7c-0.1-0.1-0.2-0.2-0.3-0.2C-6.6,7.5-6.8,7.5-7,7.5s-0.4,0-0.6,0.1
		C-7.8,7.8-7.9,7.9-8.1,8c-0.1,0.1-0.2,0.3-0.3,0.5C-8.5,8.8-8.5,9-8.5,9.3s0,0.5,0.1,0.7s0.2,0.4,0.3,0.5c0.1,0.1,0.3,0.2,0.4,0.3
		c0.2,0.1,0.3,0.1,0.5,0.1s0.4,0,0.5-0.1c0.2-0.1,0.3-0.2,0.4-0.3l0.5-0.8l3,2.2l-0.5,0.7c-0.4,0.6-1,1.1-1.7,1.4
		C-5.6,14.3-6.2,14.4-6.9,14.4z M-9.8,7.3c-0.1,0.2-0.2,0.3-0.3,0.5c-0.2,0.4-0.3,0.9-0.3,1.4s0.1,1,0.3,1.4
		c0.1,0.2,0.1,0.3,0.2,0.5c-0.1-0.2-0.2-0.3-0.2-0.5c-0.2-0.4-0.2-0.9-0.2-1.4s0.1-0.9,0.2-1.4C-10,7.7-9.9,7.5-9.8,7.3z"/>
</g>
<g>
	<path d="M-8.6,22.7L-9.9,45h-15.9L-27,22.7H-8.6 M-8.5,17.7h-18.7c-2.8,0-5,1.9-4.9,4.2l1.3,24.3c0.1,2.2,2.3,3.8,4.9,3.8h16
		c2.7,0,4.8-1.7,4.9-3.8l1.3-24.3C-3.5,19.6-5.7,17.7-8.5,17.7L-8.5,17.7z"/>
</g>
</svg>
